<svg xmlns="http://www.w3.org/2000/svg" width="985" height="419" viewBox="0 0 985 419" version="1.1"><path d="M 0 209.501 L 0 419.002 492.750 418.751 L 985.500 418.500 985.752 209.250 L 986.005 -0 493.002 -0 L 0 0 0 209.501 M 0.491 210 C 0.491 325.225, 0.607 372.363, 0.750 314.750 C 0.893 257.138, 0.893 162.863, 0.750 105.250 C 0.607 47.638, 0.491 94.775, 0.491 210 M 133.238 99.162 C 131.216 101.184, 131.261 101.296, 150.687 141.912 C 169.508 181.263, 171.081 183.837, 174.548 180.960 C 176.978 178.944, 176.512 177.779, 157.157 137.500 L 138.417 98.500 136.447 98.212 C 135.363 98.053, 133.919 98.481, 133.238 99.162 M 558.733 99.088 C 549.025 101.376, 547 105.050, 547 120.379 L 547 131.857 545.499 133.358 C 544.212 134.645, 539.421 135.964, 531.500 137.212 C 530.124 137.429, 529.500 138.299, 529.500 140.001 L 529.500 142.475 536.410 143.727 C 540.210 144.416, 544.148 145.729, 545.160 146.645 L 547 148.310 547.004 159.905 L 547.007 171.500 549.026 174.810 C 551.610 179.049, 556.768 181.184, 564.849 181.361 L 571.234 181.500 572.367 179.691 L 573.500 177.883 571.559 176.441 C 570.491 175.649, 567.889 175, 565.777 175 C 563.664 175, 560.375 174.348, 558.468 173.551 L 555 172.102 555 161.676 C 555 148.676, 554.410 145.682, 551.216 142.489 L 548.677 139.950 550.900 137.879 C 554.350 134.664, 555 131.746, 555 119.470 L 555 108.070 557.250 106.863 C 558.487 106.199, 562.153 105.395, 565.395 105.078 C 571.950 104.435, 574.413 102.408, 572.070 99.584 C 570.615 97.832, 564.960 97.621, 558.733 99.088 M 642.930 99.584 C 640.600 102.392, 643.054 104.430, 649.605 105.127 C 660.480 106.283, 661 107.097, 661 122.988 L 661 133.847 663.589 136.923 L 666.178 140 663.589 143.077 L 661 146.153 661 157.012 C 661 172.903, 660.480 173.717, 649.605 174.873 C 643.054 175.570, 640.600 177.608, 642.930 180.416 C 645.997 184.111, 661.062 181.091, 665.425 175.907 L 668 172.847 668 160.578 L 668 148.310 669.840 146.645 C 670.852 145.729, 674.790 144.416, 678.590 143.727 L 685.500 142.475 685.500 140 L 685.500 137.525 678.590 136.273 C 674.790 135.584, 670.852 134.271, 669.840 133.355 L 668 131.690 668 119.245 L 668 106.800 664.733 103.533 C 659.834 98.634, 645.825 96.097, 642.930 99.584 M 792.221 111.111 C 783.267 115.811, 777 119.698, 777 120.550 C 777 122.653, 779.399 122.338, 785 119.500 C 787.713 118.125, 790.406 117, 790.984 117 C 791.697 117, 791.948 125.261, 791.767 142.750 L 791.500 168.500 784.185 168.795 L 776.871 169.090 777.199 170.795 L 777.526 172.500 800.442 172.769 L 823.358 173.038 824.113 171.817 C 825.484 169.598, 823.961 169, 816.941 169 L 810 169 810 137.122 L 810 105.245 808.721 104.183 C 807.773 103.396, 803.503 105.189, 792.221 111.111 M 605.044 110.750 C 601.856 115.906, 599.160 118.004, 594.500 118.958 L 591.500 119.571 591.196 122.158 C 590.719 126.211, 598.323 126.698, 602.450 122.879 C 604.713 120.785, 605 123.159, 605 144 L 605 166 599.691 166 C 596.632 166, 593.560 166.611, 592.441 167.441 L 590.500 168.883 591.609 170.691 L 592.718 172.500 609.595 172.500 L 626.473 172.500 626.845 170.566 C 627.401 167.679, 624.262 166, 618.309 166 L 613 166 613 137.582 C 613 102.820, 612.011 99.484, 605.044 110.750 M 354.326 108.592 C 353.295 111.278, 355.411 113.475, 359.351 113.810 L 363 114.121 363 140.060 L 363 166 360.191 166 C 356.516 166, 353.688 168.139, 354.153 170.566 L 354.524 172.500 366.210 172.781 L 377.896 173.063 378.946 171.101 L 379.996 169.139 378.427 167.569 C 377.563 166.706, 375.253 166, 373.291 166 L 369.725 166 370.213 154.157 L 370.701 142.315 372.486 139.293 C 376.214 132.981, 385.617 130.574, 389.210 135.011 L 391 137.222 391 151.611 L 391 166 388.250 166.015 C 384.385 166.037, 382.770 167.337, 383.163 170.113 L 383.500 172.500 394.891 172.500 L 406.282 172.500 407.391 170.691 L 408.500 168.883 406.559 167.441 C 405.491 166.649, 403.402 166, 401.916 166 L 399.214 166 398.818 150.750 L 398.422 135.500 396.694 132.267 C 393.165 125.663, 383.176 123.923, 375.148 128.512 C 372.754 129.880, 370.631 131, 370.430 131 C 370.228 131, 369.937 125.713, 369.782 119.250 L 369.500 107.500 362.236 107.206 L 354.971 106.912 354.326 108.592 M 411.706 107.627 C 408.835 110.498, 411.781 114, 417.067 114 L 419.970 114 420.235 143.250 L 420.500 172.500 423.324 172.824 L 426.149 173.147 426.691 171.074 C 427.340 168.593, 427.429 168.580, 430.412 170.535 C 440.584 177.199, 454.448 171.684, 460.006 158.764 L 462.239 153.573 461.730 147.964 C 460.201 131.097, 445.386 121.420, 431.700 128.349 L 427.061 130.697 426.780 119.099 L 426.500 107.500 419.456 107.210 C 415.582 107.051, 412.095 107.239, 411.706 107.627 M 468.200 108.200 C 465.756 110.644, 468.574 114, 473.071 114 L 476 114 476 141.566 C 476 158.655, 476.393 169.867, 477.035 171.066 C 478.413 173.640, 481.523 173.519, 483.414 170.819 L 484.942 168.638 486.833 170.349 C 495.043 177.778, 511.975 171.488, 516.639 159.276 C 524.366 139.044, 506.524 119.325, 488.669 128.364 L 484 130.728 484 120.064 C 484 107.417, 483.729 107, 475.500 107 C 472.089 107, 468.871 107.529, 468.200 108.200 M 799.750 112.068 L 796 114.048 796 141.524 L 796 169 800.500 169 L 805 169 805 139.500 C 805 123.275, 804.663 110.020, 804.250 110.044 C 803.837 110.069, 801.813 110.979, 799.750 112.068 M 313.200 114.200 C 312.540 114.860, 312 117.785, 312 120.700 L 312 126 307.750 126.014 C 305.413 126.021, 302.463 126.305, 301.196 126.644 L 298.892 127.261 299.196 129.881 L 299.500 132.500 305.663 132.795 L 311.826 133.091 312.163 148.843 L 312.500 164.595 314.259 167.276 C 321.837 178.827, 343.983 173.273, 343.996 159.817 C 344.003 153.211, 337.671 153.402, 336.610 160.040 L 335.983 163.957 333.041 165.479 C 328.964 167.587, 324.389 167.389, 322 165 L 320 163 320 148 L 320 133 329.800 133 C 341.301 133, 344.317 131.460, 340.429 127.571 L 338.857 126 329.429 126 L 320 126 320 120.700 C 320 115.269, 318.822 113, 316 113 C 315.120 113, 313.860 113.540, 313.200 114.200 M 257.500 125.969 C 247.432 127.581, 243.792 136.913, 252.880 137.816 L 256.058 138.131 257.171 134.940 L 258.284 131.748 263.980 132.264 C 271.653 132.960, 275.731 135.188, 276.792 139.263 L 277.634 142.500 268.567 143.731 C 247.686 146.564, 238.950 157.883, 249.501 168.434 C 255.085 174.018, 268.071 175.243, 276.105 170.944 L 278.156 169.846 281.593 171.477 C 286.111 173.621, 293.882 173.178, 295.398 170.691 L 296.500 168.883 294.559 167.441 C 293.491 166.649, 290.904 166, 288.809 166 L 285 166 285 152.338 L 285 138.676 282.514 134.434 C 278.547 127.665, 268.386 124.227, 257.500 125.969 M 183.750 127.080 C 180.848 128.771, 181.564 131.963, 185 132.650 L 188 133.250 188 149.406 L 188 165.562 185 166.694 C 177.895 169.376, 182.368 173.190, 192.158 172.796 L 199.500 172.500 199.808 169.842 L 200.115 167.184 196.943 166.487 L 193.770 165.791 194.171 153.145 L 194.572 140.500 196.526 137.209 C 198.637 133.652, 202.351 132.102, 204.905 133.710 L 206.500 134.715 206.775 150.358 C 206.942 159.808, 206.673 166, 206.097 166 C 205.572 166, 204.437 166.706, 203.573 167.569 L 202.004 169.139 203.060 171.112 L 204.116 173.085 211.308 172.793 L 218.500 172.500 218.808 169.842 L 219.115 167.184 216.058 166.513 L 213 165.841 213.006 155.171 C 213.014 139.528, 215.504 133, 221.465 133 C 225.324 133, 226 135.738, 226 151.367 L 226 165.865 224.092 166.471 C 217.132 168.680, 221.599 173.152, 230.406 172.791 L 237.500 172.500 237.827 170.192 L 238.154 167.884 235.077 166.723 L 232 165.562 232 150.182 L 232 134.802 230.370 131.367 C 227.533 125.389, 219.610 124.199, 214.515 128.986 L 212.227 131.136 209.659 128.568 C 206.693 125.602, 202.077 125.190, 197.655 127.496 L 194.810 128.980 192.682 127.490 C 190.239 125.779, 186.295 125.598, 183.750 127.080 M 705.228 127.300 C 700.658 129.362, 701.567 136.351, 706.569 137.607 C 709.822 138.423, 713 135.636, 713 131.967 C 713 127.820, 709.173 125.521, 705.228 127.300 M 437.209 133.058 C 430.586 134.479, 426.989 140.002, 427.022 148.700 C 427.076 162.909, 436.728 171.027, 446.078 164.726 C 460.777 154.821, 453.691 129.521, 437.209 133.058 M 493.352 133.117 C 491.620 133.605, 488.807 135.594, 487.102 137.537 L 484 141.070 484 148.219 C 484 171.242, 509.245 174.115, 510.750 151.263 L 511.130 145.500 508.815 141.059 C 505.187 134.098, 499.761 131.311, 493.352 133.117 M 265.500 150.681 C 254.087 153.244, 249.852 158.694, 255.298 163.810 C 259.525 167.781, 269.884 167.921, 274.928 164.074 L 277.356 162.223 277.798 156.111 L 278.240 150 272.870 150.116 C 269.917 150.180, 266.600 150.434, 265.500 150.681 M 703.655 163.829 C 699.154 168.802, 706.689 176.169, 711.429 171.429 C 713.288 169.569, 713.499 164.899, 711.800 163.200 C 710.007 161.407, 705.534 161.752, 703.655 163.829 M 133.238 228.162 C 131.216 230.184, 131.261 230.296, 150.687 270.912 C 169.508 310.263, 171.081 312.837, 174.548 309.960 C 176.978 307.944, 176.512 306.779, 157.157 266.500 L 138.417 227.500 136.447 227.212 C 135.363 227.053, 133.919 227.481, 133.238 228.162 M 558.733 228.088 C 549.025 230.376, 547 234.050, 547 249.379 L 547 260.857 545.499 262.358 C 544.212 263.645, 539.421 264.964, 531.500 266.212 C 530.124 266.429, 529.500 267.299, 529.500 269.001 L 529.500 271.475 536.410 272.727 C 540.210 273.416, 544.148 274.729, 545.160 275.645 L 547 277.310 547.004 288.905 L 547.007 300.500 549.026 303.810 C 551.610 308.049, 556.768 310.184, 564.849 310.361 L 571.234 310.500 572.367 308.691 L 573.500 306.883 571.559 305.441 C 570.491 304.649, 567.889 304, 565.777 304 C 563.664 304, 560.375 303.348, 558.468 302.551 L 555 301.102 555 290.676 C 555 277.676, 554.410 274.682, 551.216 271.489 L 548.677 268.950 550.900 266.879 C 554.350 263.664, 555 260.746, 555 248.470 L 555 237.070 557.250 235.863 C 558.487 235.199, 562.153 234.395, 565.395 234.078 C 571.950 233.435, 574.413 231.408, 572.070 228.584 C 570.615 226.832, 564.960 226.621, 558.733 228.088 M 642.930 228.584 C 640.600 231.392, 643.054 233.430, 649.605 234.127 C 660.480 235.283, 661 236.097, 661 251.988 L 661 262.847 663.589 265.923 L 666.178 269 663.589 272.077 L 661 275.153 661 286.012 C 661 301.903, 660.480 302.717, 649.605 303.873 C 643.054 304.570, 640.600 306.608, 642.930 309.416 C 645.997 313.111, 661.062 310.091, 665.425 304.907 L 668 301.847 668 289.578 L 668 277.310 669.840 275.645 C 670.852 274.729, 674.790 273.416, 678.590 272.727 L 685.500 271.475 685.500 269 L 685.500 266.525 678.590 265.273 C 674.790 264.584, 670.852 263.271, 669.840 262.355 L 668 260.690 668 248.245 L 668 235.800 664.733 232.533 C 659.834 227.634, 645.825 225.097, 642.930 228.584 M 798.633 231.853 C 795.718 235.074, 787.261 239.063, 782.036 239.682 L 777 240.279 777 242.227 L 777 244.176 781.250 243.476 C 783.587 243.091, 787.017 242.152, 788.872 241.388 C 790.727 240.625, 792.414 240, 792.622 240 C 793.716 240, 792.910 295.690, 791.800 296.800 C 791.140 297.460, 788.440 298, 785.800 298 L 781 298 781 300 L 781 302 803.500 302 L 826 302 826 300.052 L 826 298.105 820.750 297.802 L 815.500 297.500 814.966 264 C 814.673 245.575, 814.335 230.387, 814.216 230.250 C 814.097 230.113, 810.920 230, 807.155 230 L 800.310 230 798.633 231.853 M 803 266 L 803 299 807 299 L 811 299 811 266 L 811 233 807 233 L 803 233 803 266 M 605.044 239.750 C 601.856 244.906, 599.160 247.004, 594.500 247.958 L 591.500 248.571 591.196 251.158 C 590.719 255.211, 598.323 255.698, 602.450 251.879 C 604.713 249.785, 605 252.159, 605 273 L 605 295 599.691 295 C 596.632 295, 593.560 295.611, 592.441 296.441 L 590.500 297.883 591.609 299.691 L 592.718 301.500 609.595 301.500 L 626.473 301.500 626.845 299.566 C 627.401 296.679, 624.262 295, 618.309 295 L 613 295 613 266.582 C 613 231.820, 612.011 228.484, 605.044 239.750 M 354.326 237.592 C 353.295 240.278, 355.411 242.475, 359.351 242.810 L 363 243.121 363 269.060 L 363 295 360.191 295 C 356.516 295, 353.688 297.139, 354.153 299.566 L 354.524 301.500 366.210 301.781 L 377.896 302.063 378.946 300.101 L 379.996 298.139 378.427 296.569 C 377.563 295.706, 375.253 295, 373.291 295 L 369.725 295 370.213 283.157 L 370.701 271.315 372.486 268.293 C 376.214 261.981, 385.617 259.574, 389.210 264.011 L 391 266.222 391 280.611 L 391 295 388.250 295.015 C 384.385 295.037, 382.770 296.337, 383.163 299.113 L 383.500 301.500 394.891 301.500 L 406.282 301.500 407.391 299.691 L 408.500 297.883 406.559 296.441 C 405.491 295.649, 403.402 295, 401.916 295 L 399.214 295 398.818 279.750 L 398.422 264.500 396.694 261.267 C 393.165 254.663, 383.176 252.923, 375.148 257.512 C 372.754 258.880, 370.631 260, 370.430 260 C 370.228 260, 369.937 254.713, 369.782 248.250 L 369.500 236.500 362.236 236.206 L 354.971 235.912 354.326 237.592 M 439.706 236.627 C 436.831 239.502, 439.781 243, 445.082 243 L 448 243 448 251 C 448 255.400, 447.870 259, 447.711 259 C 447.553 259, 445.658 258.100, 443.500 257 C 431.746 251.008, 417.123 259.153, 413.918 273.477 L 412.682 279 413.896 284.426 C 417.370 299.951, 433.315 307.320, 445.169 298.880 L 447.856 296.966 448.178 299.233 L 448.500 301.500 456 301.500 L 463.500 301.500 463.837 299.113 C 464.243 296.242, 462.604 295.036, 458.265 295.015 L 455.030 295 454.765 265.750 L 454.500 236.500 447.456 236.210 C 443.582 236.051, 440.095 236.239, 439.706 236.627 M 313.200 243.200 C 312.540 243.860, 312 246.785, 312 249.700 L 312 255 307.750 255.014 C 305.413 255.021, 302.463 255.305, 301.196 255.644 L 298.892 256.261 299.196 258.881 L 299.500 261.500 305.663 261.795 L 311.826 262.091 312.163 277.843 L 312.500 293.595 314.259 296.276 C 321.837 307.827, 343.983 302.273, 343.996 288.817 C 344.003 282.211, 337.671 282.402, 336.610 289.040 L 335.983 292.957 333.041 294.479 C 328.964 296.587, 324.389 296.389, 322 294 L 320 292 320 277 L 320 262 329.800 262 C 341.301 262, 344.317 260.460, 340.429 256.571 L 338.857 255 329.429 255 L 320 255 320 249.700 C 320 244.269, 318.822 242, 316 242 C 315.120 242, 313.860 242.540, 313.200 243.200 M 257.500 254.969 C 247.432 256.581, 243.792 265.913, 252.880 266.816 L 256.058 267.131 257.171 263.940 L 258.284 260.748 263.980 261.264 C 271.653 261.960, 275.731 264.188, 276.792 268.263 L 277.634 271.500 268.567 272.731 C 247.686 275.564, 238.950 286.883, 249.501 297.434 C 255.085 303.018, 268.071 304.243, 276.105 299.944 L 278.156 298.846 281.593 300.477 C 286.111 302.621, 293.882 302.178, 295.398 299.691 L 296.500 297.883 294.559 296.441 C 293.491 295.649, 290.904 295, 288.809 295 L 285 295 285 281.338 L 285 267.676 282.514 263.434 C 278.547 256.665, 268.386 253.227, 257.500 254.969 M 489 255.040 C 466.025 257.741, 468.656 275.253, 492.765 280.103 C 504.364 282.437, 507.176 283.716, 508.409 287.222 L 509.365 289.939 507.561 291.932 C 501.139 299.029, 485.773 296.593, 482.133 287.901 C 480.433 283.842, 478.434 282.513, 475.641 283.584 L 474 284.214 474 292.485 C 474 298.687, 474.382 301.073, 475.529 302.024 L 477.059 303.294 479.355 301.136 L 481.651 298.979 485.076 300.703 C 490.245 303.304, 501.381 302.962, 507.470 300.014 L 512.244 297.704 514.090 293.529 L 515.937 289.355 514.970 285.853 C 513.188 279.399, 507.549 275.974, 495.425 273.982 C 485.705 272.384, 482.144 271.137, 480.954 268.913 L 479.922 266.987 482.336 264.573 C 488.632 258.277, 505 260.783, 505 268.043 C 505 270.108, 507.883 271.366, 510.400 270.400 L 512.083 269.754 511.791 262.627 L 511.500 255.500 508.750 255.184 C 507.223 255.008, 506 255.357, 506 255.969 C 506 256.694, 505.402 256.763, 504.250 256.171 C 501.584 254.801, 495.114 254.321, 489 255.040 M 183.750 256.080 C 180.848 257.771, 181.564 260.963, 185 261.650 L 188 262.250 188 278.406 L 188 294.562 185 295.694 C 177.895 298.376, 182.368 302.190, 192.158 301.796 L 199.500 301.500 199.808 298.842 L 200.115 296.184 196.943 295.487 L 193.770 294.791 194.171 282.145 L 194.572 269.500 196.526 266.209 C 198.637 262.652, 202.351 261.102, 204.905 262.710 L 206.500 263.715 206.775 279.358 C 206.942 288.808, 206.673 295, 206.097 295 C 205.572 295, 204.437 295.706, 203.573 296.569 L 202.004 298.139 203.060 300.112 L 204.116 302.085 211.308 301.793 L 218.500 301.500 218.808 298.842 L 219.115 296.184 216.058 295.513 L 213 294.841 213.006 284.171 C 213.014 268.528, 215.504 262, 221.465 262 C 225.324 262, 226 264.738, 226 280.367 L 226 294.865 224.092 295.471 C 217.132 297.680, 221.599 302.152, 230.406 301.791 L 237.500 301.500 237.827 299.192 L 238.154 296.884 235.077 295.723 L 232 294.562 232 279.182 L 232 263.802 230.370 260.367 C 227.533 254.389, 219.610 253.199, 214.515 257.986 L 212.227 260.136 209.659 257.568 C 206.693 254.602, 202.077 254.190, 197.655 256.496 L 194.810 257.980 192.682 256.490 C 190.239 254.779, 186.295 254.598, 183.750 256.080 M 705.228 256.300 C 700.658 258.362, 701.567 265.351, 706.569 266.607 C 709.822 267.423, 713 264.636, 713 260.967 C 713 256.820, 709.173 254.521, 705.228 256.300 M 431.566 262.538 C 419.082 266.830, 416.971 287.134, 428.290 294.035 C 437.973 299.939, 447.925 291.657, 447.978 277.651 C 448.023 265.597, 441.131 259.250, 431.566 262.538 M 265.500 279.681 C 254.087 282.244, 249.852 287.694, 255.298 292.810 C 259.525 296.781, 269.884 296.921, 274.928 293.074 L 277.356 291.223 277.798 285.111 L 278.240 279 272.870 279.116 C 269.917 279.180, 266.600 279.434, 265.500 279.681 M 703.655 292.829 C 699.154 297.802, 706.689 305.169, 711.429 300.429 C 713.288 298.569, 713.499 293.899, 711.800 292.200 C 710.007 290.407, 705.534 290.752, 703.655 292.829" stroke="none" fill="#ffffff" fill-rule="evenodd"/><path d="M 133.238 99.162 C 131.216 101.184, 131.261 101.296, 150.687 141.912 C 169.508 181.263, 171.081 183.837, 174.548 180.960 C 176.978 178.944, 176.512 177.779, 157.157 137.500 L 138.417 98.500 136.447 98.212 C 135.363 98.053, 133.919 98.481, 133.238 99.162 M 558.733 99.088 C 549.025 101.376, 547 105.050, 547 120.379 L 547 131.857 545.499 133.358 C 544.212 134.645, 539.421 135.964, 531.500 137.212 C 530.124 137.429, 529.500 138.299, 529.500 140.001 L 529.500 142.475 536.410 143.727 C 540.210 144.416, 544.148 145.729, 545.160 146.645 L 547 148.310 547.004 159.905 L 547.007 171.500 549.026 174.810 C 551.610 179.049, 556.768 181.184, 564.849 181.361 L 571.234 181.500 572.367 179.691 L 573.500 177.883 571.559 176.441 C 570.491 175.649, 567.889 175, 565.777 175 C 563.664 175, 560.375 174.348, 558.468 173.551 L 555 172.102 555 161.676 C 555 148.676, 554.410 145.682, 551.216 142.489 L 548.677 139.950 550.900 137.879 C 554.350 134.664, 555 131.746, 555 119.470 L 555 108.070 557.250 106.863 C 558.487 106.199, 562.153 105.395, 565.395 105.078 C 571.950 104.435, 574.413 102.408, 572.070 99.584 C 570.615 97.832, 564.960 97.621, 558.733 99.088 M 642.930 99.584 C 640.600 102.392, 643.054 104.430, 649.605 105.127 C 660.480 106.283, 661 107.097, 661 122.988 L 661 133.847 663.589 136.923 L 666.178 140 663.589 143.077 L 661 146.153 661 157.012 C 661 172.903, 660.480 173.717, 649.605 174.873 C 643.054 175.570, 640.600 177.608, 642.930 180.416 C 645.997 184.111, 661.062 181.091, 665.425 175.907 L 668 172.847 668 160.578 L 668 148.310 669.840 146.645 C 670.852 145.729, 674.790 144.416, 678.590 143.727 L 685.500 142.475 685.500 140 L 685.500 137.525 678.590 136.273 C 674.790 135.584, 670.852 134.271, 669.840 133.355 L 668 131.690 668 119.245 L 668 106.800 664.733 103.533 C 659.834 98.634, 645.825 96.097, 642.930 99.584 M 792.221 111.111 C 783.267 115.811, 777 119.698, 777 120.550 C 777 122.653, 779.399 122.338, 785 119.500 C 787.713 118.125, 790.406 117, 790.984 117 C 791.697 117, 791.948 125.261, 791.767 142.750 L 791.500 168.500 784.185 168.795 L 776.871 169.090 777.199 170.795 L 777.526 172.500 800.442 172.769 L 823.358 173.038 824.113 171.817 C 825.484 169.598, 823.961 169, 816.941 169 L 810 169 810 137.122 L 810 105.245 808.721 104.183 C 807.773 103.396, 803.503 105.189, 792.221 111.111 M 605.044 110.750 C 601.856 115.906, 599.160 118.004, 594.500 118.958 L 591.500 119.571 591.196 122.158 C 590.719 126.211, 598.323 126.698, 602.450 122.879 C 604.713 120.785, 605 123.159, 605 144 L 605 166 599.691 166 C 596.632 166, 593.560 166.611, 592.441 167.441 L 590.500 168.883 591.609 170.691 L 592.718 172.500 609.595 172.500 L 626.473 172.500 626.845 170.566 C 627.401 167.679, 624.262 166, 618.309 166 L 613 166 613 137.582 C 613 102.820, 612.011 99.484, 605.044 110.750 M 354.326 108.592 C 353.295 111.278, 355.411 113.475, 359.351 113.810 L 363 114.121 363 140.060 L 363 166 360.191 166 C 356.516 166, 353.688 168.139, 354.153 170.566 L 354.524 172.500 366.210 172.781 L 377.896 173.063 378.946 171.101 L 379.996 169.139 378.427 167.569 C 377.563 166.706, 375.253 166, 373.291 166 L 369.725 166 370.213 154.157 L 370.701 142.315 372.486 139.293 C 376.214 132.981, 385.617 130.574, 389.210 135.011 L 391 137.222 391 151.611 L 391 166 388.250 166.015 C 384.385 166.037, 382.770 167.337, 383.163 170.113 L 383.500 172.500 394.891 172.500 L 406.282 172.500 407.391 170.691 L 408.500 168.883 406.559 167.441 C 405.491 166.649, 403.402 166, 401.916 166 L 399.214 166 398.818 150.750 L 398.422 135.500 396.694 132.267 C 393.165 125.663, 383.176 123.923, 375.148 128.512 C 372.754 129.880, 370.631 131, 370.430 131 C 370.228 131, 369.937 125.713, 369.782 119.250 L 369.500 107.500 362.236 107.206 L 354.971 106.912 354.326 108.592 M 411.706 107.627 C 408.835 110.498, 411.781 114, 417.067 114 L 419.970 114 420.235 143.250 L 420.500 172.500 423.324 172.824 L 426.149 173.147 426.691 171.074 C 427.340 168.593, 427.429 168.580, 430.412 170.535 C 440.584 177.199, 454.448 171.684, 460.006 158.764 L 462.239 153.573 461.730 147.964 C 460.201 131.097, 445.386 121.420, 431.700 128.349 L 427.061 130.697 426.780 119.099 L 426.500 107.500 419.456 107.210 C 415.582 107.051, 412.095 107.239, 411.706 107.627 M 468.200 108.200 C 465.756 110.644, 468.574 114, 473.071 114 L 476 114 476 141.566 C 476 158.655, 476.393 169.867, 477.035 171.066 C 478.413 173.640, 481.523 173.519, 483.414 170.819 L 484.942 168.638 486.833 170.349 C 495.043 177.778, 511.975 171.488, 516.639 159.276 C 524.366 139.044, 506.524 119.325, 488.669 128.364 L 484 130.728 484 120.064 C 484 107.417, 483.729 107, 475.500 107 C 472.089 107, 468.871 107.529, 468.200 108.200 M 799.750 112.068 L 796 114.048 796 141.524 L 796 169 800.500 169 L 805 169 805 139.500 C 805 123.275, 804.663 110.020, 804.250 110.044 C 803.837 110.069, 801.813 110.979, 799.750 112.068 M 313.200 114.200 C 312.540 114.860, 312 117.785, 312 120.700 L 312 126 307.750 126.014 C 305.413 126.021, 302.463 126.305, 301.196 126.644 L 298.892 127.261 299.196 129.881 L 299.500 132.500 305.663 132.795 L 311.826 133.091 312.163 148.843 L 312.500 164.595 314.259 167.276 C 321.837 178.827, 343.983 173.273, 343.996 159.817 C 344.003 153.211, 337.671 153.402, 336.610 160.040 L 335.983 163.957 333.041 165.479 C 328.964 167.587, 324.389 167.389, 322 165 L 320 163 320 148 L 320 133 329.800 133 C 341.301 133, 344.317 131.460, 340.429 127.571 L 338.857 126 329.429 126 L 320 126 320 120.700 C 320 115.269, 318.822 113, 316 113 C 315.120 113, 313.860 113.540, 313.200 114.200 M 257.500 125.969 C 247.432 127.581, 243.792 136.913, 252.880 137.816 L 256.058 138.131 257.171 134.940 L 258.284 131.748 263.980 132.264 C 271.653 132.960, 275.731 135.188, 276.792 139.263 L 277.634 142.500 268.567 143.731 C 247.686 146.564, 238.950 157.883, 249.501 168.434 C 255.085 174.018, 268.071 175.243, 276.105 170.944 L 278.156 169.846 281.593 171.477 C 286.111 173.621, 293.882 173.178, 295.398 170.691 L 296.500 168.883 294.559 167.441 C 293.491 166.649, 290.904 166, 288.809 166 L 285 166 285 152.338 L 285 138.676 282.514 134.434 C 278.547 127.665, 268.386 124.227, 257.500 125.969 M 183.750 127.080 C 180.848 128.771, 181.564 131.963, 185 132.650 L 188 133.250 188 149.406 L 188 165.562 185 166.694 C 177.895 169.376, 182.368 173.190, 192.158 172.796 L 199.500 172.500 199.808 169.842 L 200.115 167.184 196.943 166.487 L 193.770 165.791 194.171 153.145 L 194.572 140.500 196.526 137.209 C 198.637 133.652, 202.351 132.102, 204.905 133.710 L 206.500 134.715 206.775 150.358 C 206.942 159.808, 206.673 166, 206.097 166 C 205.572 166, 204.437 166.706, 203.573 167.569 L 202.004 169.139 203.060 171.112 L 204.116 173.085 211.308 172.793 L 218.500 172.500 218.808 169.842 L 219.115 167.184 216.058 166.513 L 213 165.841 213.006 155.171 C 213.014 139.528, 215.504 133, 221.465 133 C 225.324 133, 226 135.738, 226 151.367 L 226 165.865 224.092 166.471 C 217.132 168.680, 221.599 173.152, 230.406 172.791 L 237.500 172.500 237.827 170.192 L 238.154 167.884 235.077 166.723 L 232 165.562 232 150.182 L 232 134.802 230.370 131.367 C 227.533 125.389, 219.610 124.199, 214.515 128.986 L 212.227 131.136 209.659 128.568 C 206.693 125.602, 202.077 125.190, 197.655 127.496 L 194.810 128.980 192.682 127.490 C 190.239 125.779, 186.295 125.598, 183.750 127.080 M 705.228 127.300 C 700.658 129.362, 701.567 136.351, 706.569 137.607 C 709.822 138.423, 713 135.636, 713 131.967 C 713 127.820, 709.173 125.521, 705.228 127.300 M 437.209 133.058 C 430.586 134.479, 426.989 140.002, 427.022 148.700 C 427.076 162.909, 436.728 171.027, 446.078 164.726 C 460.777 154.821, 453.691 129.521, 437.209 133.058 M 493.352 133.117 C 491.620 133.605, 488.807 135.594, 487.102 137.537 L 484 141.070 484 148.219 C 484 171.242, 509.245 174.115, 510.750 151.263 L 511.130 145.500 508.815 141.059 C 505.187 134.098, 499.761 131.311, 493.352 133.117 M 265.500 150.681 C 254.087 153.244, 249.852 158.694, 255.298 163.810 C 259.525 167.781, 269.884 167.921, 274.928 164.074 L 277.356 162.223 277.798 156.111 L 278.240 150 272.870 150.116 C 269.917 150.180, 266.600 150.434, 265.500 150.681 M 703.655 163.829 C 699.154 168.802, 706.689 176.169, 711.429 171.429 C 713.288 169.569, 713.499 164.899, 711.800 163.200 C 710.007 161.407, 705.534 161.752, 703.655 163.829 M 133.238 228.162 C 131.216 230.184, 131.261 230.296, 150.687 270.912 C 169.508 310.263, 171.081 312.837, 174.548 309.960 C 176.978 307.944, 176.512 306.779, 157.157 266.500 L 138.417 227.500 136.447 227.212 C 135.363 227.053, 133.919 227.481, 133.238 228.162 M 558.733 228.088 C 549.025 230.376, 547 234.050, 547 249.379 L 547 260.857 545.499 262.358 C 544.212 263.645, 539.421 264.964, 531.500 266.212 C 530.124 266.429, 529.500 267.299, 529.500 269.001 L 529.500 271.475 536.410 272.727 C 540.210 273.416, 544.148 274.729, 545.160 275.645 L 547 277.310 547.004 288.905 L 547.007 300.500 549.026 303.810 C 551.610 308.049, 556.768 310.184, 564.849 310.361 L 571.234 310.500 572.367 308.691 L 573.500 306.883 571.559 305.441 C 570.491 304.649, 567.889 304, 565.777 304 C 563.664 304, 560.375 303.348, 558.468 302.551 L 555 301.102 555 290.676 C 555 277.676, 554.410 274.682, 551.216 271.489 L 548.677 268.950 550.900 266.879 C 554.350 263.664, 555 260.746, 555 248.470 L 555 237.070 557.250 235.863 C 558.487 235.199, 562.153 234.395, 565.395 234.078 C 571.950 233.435, 574.413 231.408, 572.070 228.584 C 570.615 226.832, 564.960 226.621, 558.733 228.088 M 642.930 228.584 C 640.600 231.392, 643.054 233.430, 649.605 234.127 C 660.480 235.283, 661 236.097, 661 251.988 L 661 262.847 663.589 265.923 L 666.178 269 663.589 272.077 L 661 275.153 661 286.012 C 661 301.903, 660.480 302.717, 649.605 303.873 C 643.054 304.570, 640.600 306.608, 642.930 309.416 C 645.997 313.111, 661.062 310.091, 665.425 304.907 L 668 301.847 668 289.578 L 668 277.310 669.840 275.645 C 670.852 274.729, 674.790 273.416, 678.590 272.727 L 685.500 271.475 685.500 269 L 685.500 266.525 678.590 265.273 C 674.790 264.584, 670.852 263.271, 669.840 262.355 L 668 260.690 668 248.245 L 668 235.800 664.733 232.533 C 659.834 227.634, 645.825 225.097, 642.930 228.584 M 798.633 231.853 C 795.718 235.074, 787.261 239.063, 782.036 239.682 L 777 240.279 777 242.227 L 777 244.176 781.250 243.476 C 783.587 243.091, 787.017 242.152, 788.872 241.388 C 790.727 240.625, 792.414 240, 792.622 240 C 793.716 240, 792.910 295.690, 791.800 296.800 C 791.140 297.460, 788.440 298, 785.800 298 L 781 298 781 300 L 781 302 803.500 302 L 826 302 826 300.052 L 826 298.105 820.750 297.802 L 815.500 297.500 814.966 264 C 814.673 245.575, 814.335 230.387, 814.216 230.250 C 814.097 230.113, 810.920 230, 807.155 230 L 800.310 230 798.633 231.853 M 803 266 L 803 299 807 299 L 811 299 811 266 L 811 233 807 233 L 803 233 803 266 M 605.044 239.750 C 601.856 244.906, 599.160 247.004, 594.500 247.958 L 591.500 248.571 591.196 251.158 C 590.719 255.211, 598.323 255.698, 602.450 251.879 C 604.713 249.785, 605 252.159, 605 273 L 605 295 599.691 295 C 596.632 295, 593.560 295.611, 592.441 296.441 L 590.500 297.883 591.609 299.691 L 592.718 301.500 609.595 301.500 L 626.473 301.500 626.845 299.566 C 627.401 296.679, 624.262 295, 618.309 295 L 613 295 613 266.582 C 613 231.820, 612.011 228.484, 605.044 239.750 M 354.326 237.592 C 353.295 240.278, 355.411 242.475, 359.351 242.810 L 363 243.121 363 269.060 L 363 295 360.191 295 C 356.516 295, 353.688 297.139, 354.153 299.566 L 354.524 301.500 366.210 301.781 L 377.896 302.063 378.946 300.101 L 379.996 298.139 378.427 296.569 C 377.563 295.706, 375.253 295, 373.291 295 L 369.725 295 370.213 283.157 L 370.701 271.315 372.486 268.293 C 376.214 261.981, 385.617 259.574, 389.210 264.011 L 391 266.222 391 280.611 L 391 295 388.250 295.015 C 384.385 295.037, 382.770 296.337, 383.163 299.113 L 383.500 301.500 394.891 301.500 L 406.282 301.500 407.391 299.691 L 408.500 297.883 406.559 296.441 C 405.491 295.649, 403.402 295, 401.916 295 L 399.214 295 398.818 279.750 L 398.422 264.500 396.694 261.267 C 393.165 254.663, 383.176 252.923, 375.148 257.512 C 372.754 258.880, 370.631 260, 370.430 260 C 370.228 260, 369.937 254.713, 369.782 248.250 L 369.500 236.500 362.236 236.206 L 354.971 235.912 354.326 237.592 M 439.706 236.627 C 436.831 239.502, 439.781 243, 445.082 243 L 448 243 448 251 C 448 255.400, 447.870 259, 447.711 259 C 447.553 259, 445.658 258.100, 443.500 257 C 431.746 251.008, 417.123 259.153, 413.918 273.477 L 412.682 279 413.896 284.426 C 417.370 299.951, 433.315 307.320, 445.169 298.880 L 447.856 296.966 448.178 299.233 L 448.500 301.500 456 301.500 L 463.500 301.500 463.837 299.113 C 464.243 296.242, 462.604 295.036, 458.265 295.015 L 455.030 295 454.765 265.750 L 454.500 236.500 447.456 236.210 C 443.582 236.051, 440.095 236.239, 439.706 236.627 M 313.200 243.200 C 312.540 243.860, 312 246.785, 312 249.700 L 312 255 307.750 255.014 C 305.413 255.021, 302.463 255.305, 301.196 255.644 L 298.892 256.261 299.196 258.881 L 299.500 261.500 305.663 261.795 L 311.826 262.091 312.163 277.843 L 312.500 293.595 314.259 296.276 C 321.837 307.827, 343.983 302.273, 343.996 288.817 C 344.003 282.211, 337.671 282.402, 336.610 289.040 L 335.983 292.957 333.041 294.479 C 328.964 296.587, 324.389 296.389, 322 294 L 320 292 320 277 L 320 262 329.800 262 C 341.301 262, 344.317 260.460, 340.429 256.571 L 338.857 255 329.429 255 L 320 255 320 249.700 C 320 244.269, 318.822 242, 316 242 C 315.120 242, 313.860 242.540, 313.200 243.200 M 257.500 254.969 C 247.432 256.581, 243.792 265.913, 252.880 266.816 L 256.058 267.131 257.171 263.940 L 258.284 260.748 263.980 261.264 C 271.653 261.960, 275.731 264.188, 276.792 268.263 L 277.634 271.500 268.567 272.731 C 247.686 275.564, 238.950 286.883, 249.501 297.434 C 255.085 303.018, 268.071 304.243, 276.105 299.944 L 278.156 298.846 281.593 300.477 C 286.111 302.621, 293.882 302.178, 295.398 299.691 L 296.500 297.883 294.559 296.441 C 293.491 295.649, 290.904 295, 288.809 295 L 285 295 285 281.338 L 285 267.676 282.514 263.434 C 278.547 256.665, 268.386 253.227, 257.500 254.969 M 489 255.040 C 466.025 257.741, 468.656 275.253, 492.765 280.103 C 504.364 282.437, 507.176 283.716, 508.409 287.222 L 509.365 289.939 507.561 291.932 C 501.139 299.029, 485.773 296.593, 482.133 287.901 C 480.433 283.842, 478.434 282.513, 475.641 283.584 L 474 284.214 474 292.485 C 474 298.687, 474.382 301.073, 475.529 302.024 L 477.059 303.294 479.355 301.136 L 481.651 298.979 485.076 300.703 C 490.245 303.304, 501.381 302.962, 507.470 300.014 L 512.244 297.704 514.090 293.529 L 515.937 289.355 514.970 285.853 C 513.188 279.399, 507.549 275.974, 495.425 273.982 C 485.705 272.384, 482.144 271.137, 480.954 268.913 L 479.922 266.987 482.336 264.573 C 488.632 258.277, 505 260.783, 505 268.043 C 505 270.108, 507.883 271.366, 510.400 270.400 L 512.083 269.754 511.791 262.627 L 511.500 255.500 508.750 255.184 C 507.223 255.008, 506 255.357, 506 255.969 C 506 256.694, 505.402 256.763, 504.250 256.171 C 501.584 254.801, 495.114 254.321, 489 255.040 M 183.750 256.080 C 180.848 257.771, 181.564 260.963, 185 261.650 L 188 262.250 188 278.406 L 188 294.562 185 295.694 C 177.895 298.376, 182.368 302.190, 192.158 301.796 L 199.500 301.500 199.808 298.842 L 200.115 296.184 196.943 295.487 L 193.770 294.791 194.171 282.145 L 194.572 269.500 196.526 266.209 C 198.637 262.652, 202.351 261.102, 204.905 262.710 L 206.500 263.715 206.775 279.358 C 206.942 288.808, 206.673 295, 206.097 295 C 205.572 295, 204.437 295.706, 203.573 296.569 L 202.004 298.139 203.060 300.112 L 204.116 302.085 211.308 301.793 L 218.500 301.500 218.808 298.842 L 219.115 296.184 216.058 295.513 L 213 294.841 213.006 284.171 C 213.014 268.528, 215.504 262, 221.465 262 C 225.324 262, 226 264.738, 226 280.367 L 226 294.865 224.092 295.471 C 217.132 297.680, 221.599 302.152, 230.406 301.791 L 237.500 301.500 237.827 299.192 L 238.154 296.884 235.077 295.723 L 232 294.562 232 279.182 L 232 263.802 230.370 260.367 C 227.533 254.389, 219.610 253.199, 214.515 257.986 L 212.227 260.136 209.659 257.568 C 206.693 254.602, 202.077 254.190, 197.655 256.496 L 194.810 257.980 192.682 256.490 C 190.239 254.779, 186.295 254.598, 183.750 256.080 M 705.228 256.300 C 700.658 258.362, 701.567 265.351, 706.569 266.607 C 709.822 267.423, 713 264.636, 713 260.967 C 713 256.820, 709.173 254.521, 705.228 256.300 M 431.566 262.538 C 419.082 266.830, 416.971 287.134, 428.290 294.035 C 437.973 299.939, 447.925 291.657, 447.978 277.651 C 448.023 265.597, 441.131 259.250, 431.566 262.538 M 265.500 279.681 C 254.087 282.244, 249.852 287.694, 255.298 292.810 C 259.525 296.781, 269.884 296.921, 274.928 293.074 L 277.356 291.223 277.798 285.111 L 278.240 279 272.870 279.116 C 269.917 279.180, 266.600 279.434, 265.500 279.681 M 703.655 292.829 C 699.154 297.802, 706.689 305.169, 711.429 300.429 C 713.288 298.569, 713.499 293.899, 711.800 292.200 C 710.007 290.407, 705.534 290.752, 703.655 292.829" stroke="none" fill="#0d0d0d" fill-rule="evenodd"/></svg>